<svg width="101" height="23" viewBox="0 0 101 23" fill="none" xmlns="http://www.w3.org/2000/svg">
<path d="M40.8466 4.23193V1.06055H27.3799V4.0183H36.3791L27.0176 14.0104V17.1824H41.0596V14.224H31.3954L40.8466 4.23193Z" fill="black"/>
<path d="M57.3107 14.1747C57.1568 14.026 57.0821 13.7377 57.0821 13.3163V7.39948C57.0821 5.24496 56.4964 3.58719 55.3302 2.43072C54.1639 1.27424 52.4412 0.693726 50.1679 0.693726C48.1777 0.693726 46.5543 1.1606 45.3082 2.08332C44.0621 3.01123 43.2777 4.30731 42.9557 5.98002L46.8225 6.19365C47.0257 5.36964 47.3933 4.73913 47.9244 4.30731C48.4556 3.8755 49.2049 3.65732 50.1731 3.65732C51.1958 3.65732 51.975 3.94498 52.5107 4.53069C53.0419 5.1112 53.3101 5.98976 53.3101 7.15663L47.9342 8.18389C46.1621 8.52609 44.842 9.09231 43.9784 9.87672C43.1095 10.6611 42.6777 11.7481 42.6777 13.1377C42.6777 14.5273 43.1888 15.6098 44.2167 16.3838C45.2446 17.1578 46.5991 17.5454 48.2919 17.5454H48.3017C49.2848 17.5454 50.188 17.3968 51.0016 17.0935C51.8159 16.7909 52.486 16.3636 53.0068 15.8078C53.3256 15.4708 53.5808 15.1039 53.773 14.7085C53.8425 15.1585 53.9633 15.5409 54.1386 15.8526C54.4263 16.374 54.8334 16.7461 55.3444 16.9695C55.8607 17.1929 56.4464 17.3019 57.1113 17.3019C57.3944 17.3019 57.6626 17.2922 57.9256 17.2721C58.1886 17.2519 58.3821 17.2227 58.5015 17.1825V14.4026H57.9905C57.6879 14.4026 57.4594 14.3234 57.3107 14.1741V14.1747ZM53.2997 10.6605C53.2997 11.4845 53.1263 12.204 52.7737 12.8195C52.4211 13.4351 51.9302 13.9117 51.2945 14.2539C50.6594 14.5961 49.9095 14.765 49.0458 14.765H49.0406C48.2562 14.765 47.651 14.5961 47.229 14.2539C46.8069 13.9117 46.5939 13.4299 46.5939 12.8046C46.5939 12.2189 46.7874 11.752 47.1699 11.4001C47.5523 11.0475 48.1777 10.7793 49.0413 10.6007L53.3003 9.75659V10.6598L53.2997 10.6605Z" fill="black"/>
<path d="M80.7845 1.41878C79.9806 0.947361 79.0125 0.709052 77.8858 0.709052C77.0417 0.709052 76.2826 0.877881 75.6073 1.22008C74.932 1.56229 74.3716 2.05384 73.9294 2.69929C73.6638 3.0798 73.4469 3.51421 73.2762 3.99732C72.9898 3.13629 72.5366 2.42526 71.919 1.86553C71.0652 1.09151 69.9535 0.703857 68.5834 0.703857C67.799 0.703857 67.084 0.867492 66.4392 1.19995C65.7938 1.53242 65.2425 2.00384 64.7906 2.61942C64.5373 2.96097 64.3269 3.34538 64.1529 3.7694L64.051 1.06035H60.6406V17.1822L60.6458 17.1919H64.4185V7.92129C64.4185 7.05767 64.5425 6.31807 64.7958 5.70249C65.0484 5.08692 65.3964 4.61549 65.8373 4.28303C66.2795 3.95057 66.8107 3.78693 67.436 3.78693C68.4438 3.78693 69.1535 4.14407 69.5652 4.859C69.9775 5.57392 70.186 6.59144 70.186 7.92129V17.1932H73.6904V7.92129C73.6904 7.05767 73.8093 6.31807 74.0521 5.70249C74.2956 5.08692 74.643 4.61549 75.0943 4.28303C75.5463 3.95057 76.0826 3.78693 76.7073 3.78693C77.6553 3.78693 78.356 4.12459 78.8073 4.79926C79.2592 5.47457 79.4871 6.47196 79.4871 7.80246V17.1939H83.2598V6.83949C83.2598 5.51418 83.0468 4.39212 82.6241 3.48889C82.2027 2.58046 81.5864 1.89085 80.7826 1.41878H80.7845Z" fill="black"/>
<path d="M97.9658 2.14869C96.9489 1.38442 95.6788 1.00195 94.1502 1.00195C92.9171 1.00195 91.8509 1.31623 90.9321 1.93895C90.2419 2.40778 89.6932 2.96232 89.2984 3.71425L89.2555 1.05715H85.6367V22.3062H89.4094V15.3219C89.5945 15.6673 89.8165 15.9875 90.0938 16.2777C90.5808 16.7952 91.1789 17.2024 91.8756 17.4797C92.5659 17.7634 93.3178 17.905 94.1197 17.905C95.6483 17.905 96.9249 17.5225 97.9417 16.7582C98.9528 15.994 99.7235 14.9764 100.235 13.707C100.747 12.4369 101 10.6739 101 9.12068C101 6.42071 100.192 3.81295 97.9664 2.14869H97.9658ZM96.4489 13.2758C95.7587 14.17 94.8217 14.6135 93.6379 14.6135C92.4542 14.6135 91.5172 14.1693 90.8269 13.2758C90.1425 12.3817 89.8035 11.1551 89.8035 9.57716C89.8035 7.99926 90.1425 6.50123 90.8269 5.60709C91.5172 4.71294 92.4542 4.26944 93.6379 4.26944C94.8217 4.26944 95.7587 4.71359 96.4489 5.60709C97.1333 6.50123 97.4723 7.99861 97.4723 9.57716C97.4723 11.1557 97.1333 12.3823 96.4489 13.2758Z" fill="black"/>
<path d="M0 7.98229L3.8019 1.0603H20.1712L16.3693 7.98229H0Z" fill="black"/>
<path d="M0 17.1817L3.8019 10.259H20.1712L16.3693 17.1817H0Z" fill="black"/>
</svg>
